<svg xmlns="http://www.w3.org/2000/svg" viewBox="0 0 150 31.19" width="150" height="31.19">
        <path d="M64.71 7.1C66.17 8.49 66.91 10.32 66.91 12.52C66.91 14.72 66.17 16.55 64.71 17.94C63.25 19.33 61.42 20.06 59.22 20.06C59.03 20.06 58.08 20.06 56.36 20.06L56.36 26.51L50.87 26.51L50.87 4.98L59.22 4.98L59.22 4.98C61.9 5.47 63.73 6.18 64.71 7.1ZM61.42 12.52C61.42 11.13 60.46 10.25 59.22 10.25C59.03 10.25 58.08 10.25 56.36 10.25L56.36 14.86L59.22 14.86C60.68 14.23 61.42 13.45 61.42 12.52Z" fill="#6600cc"/>
        <path d="M69.32 4.83C70.49 3.66 72.32 3.66 73.5 4.83C74.67 6 74.67 7.76 73.5 9.01C72.32 10.18 70.49 10.18 69.32 9.01C68.15 7.84 68.15 6 69.32 4.83ZM68.88 11.13L74.01 11.13L74.01 26.51L68.88 26.51L68.88 11.13Z" fill="#6600cc"/>
        <path d="M84.84 22.62C85.94 22.62 86.89 22.26 87.62 21.53C87.99 21.78 90.92 23.83 91.28 24.09C89.75 25.99 87.55 26.94 84.7 26.94C82.06 26.94 80.01 26.21 78.4 24.67C76.86 23.14 76.06 21.23 76.06 18.89C76.06 16.55 76.86 14.64 78.4 13.11C79.94 11.57 81.91 10.76 84.26 10.76C86.6 10.76 88.43 11.5 89.97 13.11C91.5 14.64 92.24 16.55 92.24 18.89C92.24 19.55 92.16 20.21 92.02 20.79C91.31 20.79 87.77 20.79 81.4 20.79L81.4 20.72C82.52 21.99 83.67 22.62 84.84 22.62ZM84.4 15.08C82.87 15.08 81.84 15.82 81.4 17.21C81.79 17.21 83.74 17.21 87.26 17.21C86.33 15.79 85.38 15.08 84.4 15.08Z" fill="#6600cc"/>
        <path d="M97.58 18.96C98.39 20.87 99.78 21.82 101.83 21.82C103.51 21.82 104.32 21.31 104.32 20.35C104.32 19.7 103.8 19.18 102.85 18.82C102.48 18.67 101.53 18.38 100.14 18.01C96.19 16.84 93.77 14.94 93.77 11.28C93.77 9.3 94.51 7.69 95.9 6.44C97.36 5.2 99.12 4.61 101.24 4.61C104.83 4.61 107.76 6.37 109.22 9.52C108.76 9.79 105.07 11.96 104.61 12.23C103.95 10.62 102.85 9.81 101.24 9.81C99.92 9.81 99.26 10.4 99.26 11.2C99.26 12.15 100 12.67 102.92 13.55C103.95 13.84 104.83 14.13 105.41 14.42C106.07 14.72 106.73 15.08 107.54 15.6C109.07 16.55 109.81 18.16 109.81 20.28C109.81 22.41 109.07 24.02 107.54 25.26C106 26.43 104.1 27.02 101.61 27.02C97.14 27.02 94.14 24.97 92.89 21.67C93.83 21.13 97.11 19.23 97.58 18.96Z" fill="#000000"/>
        <path d="M111.49 18.82C111.49 16.55 112.29 14.64 113.91 13.03C115.52 11.5 117.42 10.69 119.69 10.69C122.03 10.69 123.93 11.5 125.47 13.03C127.08 14.57 127.89 16.47 127.89 18.82C127.89 21.16 127.08 23.06 125.47 24.6C123.93 26.14 121.96 26.94 119.69 26.94C117.49 26.94 115.52 26.21 113.91 24.6C112.29 23.06 111.49 21.09 111.49 18.82ZM119.76 15.6C118 15.6 116.69 16.91 116.69 18.82C116.69 20.72 118 22.04 119.76 22.04C121.59 22.04 122.84 20.72 122.84 18.82C122.84 16.91 121.52 15.6 119.76 15.6Z" fill="#000000"/>
        <path d="M135.87 11.2C136.04 11.2 136.92 11.2 138.5 11.2L138.5 16.11L135.87 16.11L135.87 26.51L130.74 26.51L130.74 16.04L128.84 16.04L128.84 11.13C129.98 11.13 130.62 11.13 130.74 11.13C130.74 6.74 133.38 4.25 138.5 4.54C138.5 4.86 138.5 6.44 138.5 9.3C136.75 9.64 135.87 10.28 135.87 11.2Z" fill="#000000"/>
        <path d="M146.7 16.04C146.7 18.71 146.7 20.2 146.7 20.5C146.7 21.82 147.58 22.04 149.92 21.89C149.92 22.35 149.92 26.04 149.92 26.51C146.85 26.87 144.72 26.58 143.48 25.7C142.24 24.75 141.65 23.06 141.65 20.65C141.65 20.34 141.65 18.8 141.65 16.04L139.31 16.04L139.31 11.13L141.65 11.13L141.65 8.35L146.77 6.81L146.77 11.13L150 11.13L150 16.04L149.92 16.04L146.7 16.04Z" fill="#000000"/>
        <path d="M32.5 10.84L32.5 0.95L0 10.54L0 20.5L32.5 10.84Z" fill="#6600cc"/>
        <path d="M2.19 13.47L30.3 21.82L30.3 27.16L2.19 18.82L2.19 13.47M0 20.43L32.5 30.02L32.5 20.14L0 10.54L0 10.54L0 20.43Z" fill="#000000"/>
        <path d="M36.89 30.09C36.89 28.41 37.84 27.53 38.58 26.87C39.23 26.29 39.53 25.92 39.53 25.26C39.53 24.6 39.23 24.24 38.58 23.65C37.84 22.99 36.89 22.11 36.89 20.43C36.89 18.74 37.84 17.87 38.58 17.21C39.23 16.62 39.53 16.25 39.53 15.6C39.53 14.86 39.23 14.57 38.58 13.99C37.84 13.33 36.89 12.45 36.89 10.76C36.89 9.08 37.84 8.2 38.58 7.54C39.23 6.96 39.53 6.59 39.53 5.93C39.53 5.27 39.23 4.91 38.58 4.32C37.84 3.66 36.89 2.78 36.89 1.1C36.89 0.51 37.4 0 37.99 0C38.58 0 39.09 0.51 39.09 1.1C39.09 1.83 39.38 2.12 40.04 2.71C40.77 3.37 41.72 4.25 41.72 5.93C41.72 7.62 40.77 8.49 40.04 9.15C39.38 9.74 39.09 10.1 39.09 10.76C39.09 11.42 39.38 11.79 40.04 12.37C40.77 13.03 41.72 13.91 41.72 15.6C41.72 17.28 40.77 18.16 40.04 18.82C39.38 19.4 39.09 19.77 39.09 20.43C39.09 21.16 39.38 21.45 40.04 22.04C40.77 22.7 41.72 23.58 41.72 25.26C41.72 26.94 40.77 27.82 40.04 28.48C39.38 29.07 39.09 29.43 39.09 30.09C39.09 30.68 38.65 31.19 37.99 31.19C37.4 31.19 36.89 30.68 36.89 30.09Z" fill="#000000"/>
</svg>
